<svg xmlns="http://www.w3.org/2000/svg" version="1.1" xmlns:xlink="http://www.w3.org/1999/xlink" xmlns:svgjs="http://svgjs.dev/svgjs" width="128" height="128" viewBox="0 0 128 128"><g transform="matrix(0.8046875,0,0,0.8046875,12.333870967741937,22.204404539891776)"><svg viewBox="0 0 155 126" data-background-color="#35185a" preserveAspectRatio="xMidYMid meet" height="104" width="128" xmlns="http://www.w3.org/2000/svg" xmlns:xlink="http://www.w3.org/1999/xlink"><g id="tight-bounds" transform="matrix(1,0,0,1,0.25,-0.07250153280195804)"><svg viewBox="0 0 154.5 126.14500306560392" height="126.14500306560392" width="154.5"><g><svg viewBox="0 0 154.5 126.14500306560392" height="126.14500306560392" width="154.5"><g><svg viewBox="0 0 154.5 126.14500306560392" height="126.14500306560392" width="154.5"><g id="textblocktransform"><svg viewBox="0 0 154.5 126.14500306560392" height="126.14500306560392" width="154.5" id="textblock"><g><svg viewBox="0 0 154.5 126.14500306560392" height="126.14500306560392" width="154.5"><g transform="matrix(1,0,0,1,0,0)"><svg width="154.5" viewBox="0.25 -35.15 43.17325554685299 35.25" height="126.14500306560392" data-palette-color="url(#76f48b5e-7e3e-4dfe-b914-d0f043c9eff8)"><g class="wordmark-text-0" data-fill-palette-color="primary" id="text-0"></g></svg></g></svg></g></svg></g></svg></g><g></g></svg></g><defs></defs><mask id="f0cf06d6-4113-47b3-8374-0aaf34dd7684"><g id="SvgjsG1022"><svg viewBox="0 0 154.5 126.14500306560392" height="126.14500306560392" width="154.5"><g><svg viewBox="0 0 154.5 126.14500306560392" height="126.14500306560392" width="154.5"><g><svg viewBox="0 0 154.5 126.14500306560392" height="126.14500306560392" width="154.5"><g id="SvgjsG1021"><svg viewBox="0 0 154.5 126.14500306560392" height="126.14500306560392" width="154.5" id="SvgjsSvg1020"><g><svg viewBox="0 0 154.5 126.14500306560392" height="126.14500306560392" width="154.5"><g transform="matrix(1,0,0,1,0,0)"><svg width="154.5" viewBox="0.25 -35.15 43.17325554685299 35.25" height="126.14500306560392" data-palette-color="url(#76f48b5e-7e3e-4dfe-b914-d0f043c9eff8)"><g class="wordmark-text-0" data-fill-palette-color="primary" id="SvgjsG1019"><path d="M2.8 0.1L2.8 0.1Q2.4 0.1 1.7 0.05 1 0 0.25-0.05L0.25-0.05 9.15-34.45Q9.3-35.15 10.7-35.15L10.7-35.15Q11.2-35.15 11.73-35.1 12.25-35.05 12.6-35L12.6-35 21.55-0.75Q21.65-0.35 21.33-0.13 21 0.1 19.8 0.1L19.8 0.1Q19.35 0.1 18.78 0.08 18.2 0.05 17.4 0L17.4 0 12.7-19.7Q12.3-21.4 11.95-23.15 11.6-24.9 11.33-26.53 11.05-28.15 10.95-29.35L10.95-29.35Q10.85-28.15 10.58-26.53 10.3-24.9 9.95-23.15 9.6-21.4 9.15-19.7L9.15-19.7 4.7-0.7Q4.6-0.3 4.3-0.1 4 0.1 2.8 0.1ZM17.35-8.9L5.4-8.9 5.4-12.6 17.35-12.6 17.35-8.9ZM24.65 0.1L24.65 0.1Q24.25 0.1 23.55 0.05 22.85 0 22.1-0.05L22.1-0.05 31-34.45Q31.15-35.15 32.55-35.15L32.55-35.15Q33.05-35.15 33.57-35.1 34.1-35.05 34.45-35L34.45-35 43.4-0.75Q43.5-0.35 43.17-0.13 42.85 0.1 41.65 0.1L41.65 0.1Q41.2 0.1 40.62 0.08 40.05 0.05 39.25 0L39.25 0 34.55-19.7Q34.15-21.4 33.8-23.15 33.45-24.9 33.17-26.53 32.9-28.15 32.8-29.35L32.8-29.35Q32.7-28.15 32.42-26.53 32.15-24.9 31.8-23.15 31.45-21.4 31-19.7L31-19.7 26.55-0.7Q26.45-0.3 26.15-0.1 25.85 0.1 24.65 0.1ZM39.2-8.9L27.25-8.9 27.25-12.6 39.2-12.6 39.2-8.9Z" fill="white"></path></g></svg></g></svg></g></svg></g></svg></g><g></g></svg></g><defs><mask></mask></defs></svg></g></mask><linearGradient x1="0" x2="1" y1="0.548" y2="0.55" id="76f48b5e-7e3e-4dfe-b914-d0f043c9eff8"><stop stop-color="#ff6cab" offset="0"></stop><stop stop-color="#7366ff" offset="1"></stop></linearGradient><rect width="154.5" height="126.14500306560392" fill="url(#76f48b5e-7e3e-4dfe-b914-d0f043c9eff8)" mask="url(#f0cf06d6-4113-47b3-8374-0aaf34dd7684)" data-fill-palette-color="primary"></rect></svg><rect width="154.5" height="126.14500306560392" fill="none" stroke="none" visibility="hidden"></rect></g></svg></g></svg>