<svg xmlns="http://www.w3.org/2000/svg" version="1.1" xmlns:xlink="http://www.w3.org/1999/xlink" xmlns:svgjs="http://svgjs.dev/svgjs" width="2000" height="499" viewBox="0 0 2000 499"><g transform="matrix(1,0,0,1,-1.2121212121207918,-1.0453785253898218)"><svg viewBox="0 0 396 99" data-background-color="#35185a" preserveAspectRatio="xMidYMid meet" height="499" width="2000" xmlns="http://www.w3.org/2000/svg" xmlns:xlink="http://www.w3.org/1999/xlink"><g id="tight-bounds" transform="matrix(1,0,0,1,0.23999999999992383,0.20739974752223134)"><svg viewBox="0 0 395.5199999999999 98.58520050495554" height="98.58520050495554" width="395.5199999999999"><g><svg viewBox="0 0 395.5199999999999 98.58520050495554" height="98.58520050495554" width="395.5199999999999"><g><svg viewBox="0 0 395.5199999999999 98.58520050495554" height="98.58520050495554" width="395.5199999999999"><g id="textblocktransform"><svg viewBox="0 0 395.5199999999999 98.58520050495554" height="98.58520050495554" width="395.5199999999999" id="textblock"><g><svg viewBox="0 0 395.5199999999999 98.58520050495554" height="98.58520050495554" width="395.5199999999999"><g transform="matrix(1,0,0,1,0,0)"><svg width="395.5199999999999" viewBox="0.25 -36.75 184.8333333333333 46.4" height="98.58520050495554" data-palette-color="url(#f1ca0dab-b57d-4bee-8543-d832e2bb8fee)"><g class="wordmark-text-0" data-fill-palette-color="primary" id="text-0"><path d="M100.84 0.1L100.84 0.1Q100.44 0.1 99.74 0.05 99.04 0 98.29-0.05L98.29-0.05 107.19-34.45Q107.34-35.15 108.74-35.15L108.74-35.15Q109.24-35.15 109.76-35.1 110.29-35.05 110.64-35L110.64-35 119.59-0.75Q119.69-0.35 119.36-0.13 119.04 0.1 117.84 0.1L117.84 0.1Q117.39 0.1 116.81 0.08 116.24 0.05 115.44 0L115.44 0 110.74-19.7Q110.34-21.4 109.99-23.15 109.64-24.9 109.36-26.53 109.09-28.15 108.99-29.35L108.99-29.35Q108.89-28.15 108.61-26.53 108.34-24.9 107.99-23.15 107.64-21.4 107.19-19.7L107.19-19.7 102.74-0.7Q102.64-0.3 102.34-0.1 102.04 0.1 100.84 0.1ZM115.39-8.9L103.44-8.9 103.44-12.6 115.39-12.6 115.39-8.9ZM122.14 0L122.14 0 122.14-23.25Q123.59-24.3 125.34-24.9 127.09-25.5 128.94-25.5L128.94-25.5Q130.89-25.5 131.66-24.98 132.44-24.45 132.44-23.4L132.44-23.4Q132.44-23 132.34-22.33 132.23-21.65 131.98-21L131.98-21Q131.44-21.3 130.84-21.45 130.23-21.6 129.59-21.6L129.59-21.6Q128.73-21.6 127.86-21.33 126.98-21.05 126.29-20.5L126.29-20.5 126.23-0.8Q126.23-0.4 126.06-0.25 125.89-0.1 125.04-0.05 124.19 0 122.14 0ZM135.33 0L135.33 0 135.33-23.15Q135.33-24.1 135.68-24.48 136.03-24.85 136.93-24.93 137.83-25 139.48-25L139.48-25 139.48-0.8Q139.48-0.4 139.31-0.25 139.13-0.1 138.28-0.05 137.43 0 135.33 0ZM137.28-28.45L137.28-28.45Q136.33-28.5 135.78-29.18 135.23-29.85 135.23-31.6L135.23-31.6Q135.28-32.95 135.83-33.77 136.38-34.6 137.58-34.6L137.58-34.6Q138.73-34.6 139.18-33.95 139.63-33.3 139.58-31.7L139.58-31.7Q139.58-30.2 139.01-29.33 138.43-28.45 137.28-28.45ZM150.38 0.5L150.38 0.5Q148.98 0.5 147.71 0.28 146.43 0.05 145.43-0.73 144.43-1.5 143.83-3 143.23-4.5 143.23-7.1L143.23-7.1Q143.23-9.7 143.78-11.33 144.33-12.95 145.28-13.83 146.23-14.7 147.43-15 148.63-15.3 149.88-15.3L149.88-15.3Q150.68-15.3 151.76-15.15 152.83-15 153.58-14.65L153.58-14.65Q153.58-14.65 153.58-15.35 153.58-16.05 153.58-16.98 153.58-17.9 153.58-18.6L153.58-18.6Q153.58-19.8 153.21-20.43 152.83-21.05 152.16-21.33 151.48-21.6 150.48-21.6L150.48-21.6Q148.53-21.6 146.73-21.25 144.93-20.9 143.83-20.45L143.83-20.45Q143.48-21.05 143.38-21.68 143.28-22.3 143.28-22.8L143.28-22.8Q143.28-23.15 143.41-23.55 143.53-23.95 143.83-24.15L143.83-24.15Q144.48-24.55 146.53-25.03 148.58-25.5 151.43-25.5L151.43-25.5Q154.68-25.5 156.16-24.15 157.63-22.8 157.63-19.4L157.63-19.4 157.63-16.75Q157.63-13.9 157.61-11.03 157.58-8.15 157.53-5.63 157.48-3.1 157.33-1.2L157.33-1.2Q156.33-0.6 154.58-0.05 152.83 0.5 150.38 0.5ZM150.78-2.9L150.78-2.9Q151.58-2.9 152.33-3.15 153.08-3.4 153.38-3.75L153.38-3.75Q153.48-4.55 153.51-5.95 153.53-7.35 153.56-8.9 153.58-10.45 153.58-11.8L153.58-11.8Q153.08-12.05 152.41-12.15 151.73-12.25 151.23-12.25L151.23-12.25Q150.43-12.25 149.76-12.08 149.08-11.9 148.58-11.38 148.08-10.85 147.78-9.85 147.48-8.85 147.48-7.2L147.48-7.2Q147.48-5.85 147.71-5 147.93-4.15 148.38-3.68 148.83-3.2 149.43-3.05 150.03-2.9 150.78-2.9ZM169.13 0.5L169.13 0.5Q167.48 0.5 166.03 0.13 164.58-0.25 163.43-1.48 162.28-2.7 161.65-5.13 161.03-7.55 161.03-11.6L161.03-11.6Q161.03-16.55 162.05-19.63 163.08-22.7 164.8-24.1 166.53-25.5 168.68-25.5L168.68-25.5Q169.83-25.5 170.73-25.25 171.63-25 172.23-24.5L172.23-24.5 172.23-34.9Q172.23-35.85 172.55-36.23 172.88-36.6 173.78-36.68 174.68-36.75 176.28-36.75L176.28-36.75 176.28-1Q175.08-0.4 173.25 0.05 171.43 0.5 169.13 0.5ZM169.28-3.15L169.28-3.15Q170.13-3.15 170.88-3.33 171.63-3.5 172.23-3.9L172.23-3.9 172.23-21.3Q171.78-21.7 171.25-21.83 170.73-21.95 169.93-21.95L169.93-21.95Q169.13-21.95 168.33-21.55 167.53-21.15 166.88-20.08 166.23-19 165.88-17.07 165.53-15.15 165.53-12.05L165.53-12.05Q165.53-9.2 165.78-7.45 166.03-5.7 166.53-4.78 167.03-3.85 167.7-3.5 168.38-3.15 169.28-3.15ZM180.83 0L180.83 0 180.83-23.15Q180.83-24.1 181.18-24.48 181.53-24.85 182.43-24.93 183.33-25 184.98-25L184.98-25 184.98-0.8Q184.98-0.4 184.8-0.25 184.62-0.1 183.78-0.05 182.93 0 180.83 0ZM182.78-28.45L182.78-28.45Q181.83-28.5 181.28-29.18 180.73-29.85 180.73-31.6L180.73-31.6Q180.78-32.95 181.33-33.77 181.87-34.6 183.08-34.6L183.08-34.6Q184.23-34.6 184.68-33.95 185.12-33.3 185.08-31.7L185.08-31.7Q185.08-30.2 184.5-29.33 183.93-28.45 182.78-28.45Z" fill="#b19dd0" data-fill-palette-color="secondary"></path></g></svg></g></svg></g></svg></g></svg></g><g></g></svg></g><defs></defs><mask id="23597c4d-734a-43eb-be13-221615fa3be0"><g id="SvgjsG1003"><svg viewBox="0 0 395.5199999999999 98.58520050495554" height="98.58520050495554" width="395.5199999999999"><g><svg viewBox="0 0 395.5199999999999 98.58520050495554" height="98.58520050495554" width="395.5199999999999"><g><svg viewBox="0 0 395.5199999999999 98.58520050495554" height="98.58520050495554" width="395.5199999999999"><g id="SvgjsG1002"><svg viewBox="0 0 395.5199999999999 98.58520050495554" height="98.58520050495554" width="395.5199999999999" id="SvgjsSvg1001"><g><svg viewBox="0 0 395.5199999999999 98.58520050495554" height="98.58520050495554" width="395.5199999999999"><g transform="matrix(1,0,0,1,0,0)"><svg width="395.5199999999999" viewBox="0.25 -36.75 184.8333333333333 46.4" height="98.58520050495554" data-palette-color="url(#f1ca0dab-b57d-4bee-8543-d832e2bb8fee)"><g class="wordmark-text-0" data-fill-palette-color="primary" id="SvgjsG1000"><path d="M2.8 0.1L2.8 0.1Q2.4 0.1 1.7 0.05 1 0 0.25-0.05L0.25-0.05 9.15-34.45Q9.3-35.15 10.7-35.15L10.7-35.15Q11.2-35.15 11.73-35.1 12.25-35.05 12.6-35L12.6-35 21.55-0.75Q21.65-0.35 21.33-0.13 21 0.1 19.8 0.1L19.8 0.1Q19.35 0.1 18.78 0.08 18.2 0.05 17.4 0L17.4 0 12.7-19.7Q12.3-21.4 11.95-23.15 11.6-24.9 11.33-26.53 11.05-28.15 10.95-29.35L10.95-29.35Q10.85-28.15 10.58-26.53 10.3-24.9 9.95-23.15 9.6-21.4 9.15-19.7L9.15-19.7 4.7-0.7Q4.6-0.3 4.3-0.1 4 0.1 2.8 0.1ZM17.35-8.9L5.4-8.9 5.4-12.6 17.35-12.6 17.35-8.9ZM24.1 0L24.1 0 24.1-23.8Q25.1-24.25 26.45-24.63 27.8-25 29.25-25.25 30.7-25.5 32.05-25.5L32.05-25.5Q34.65-25.5 36.2-24.83 37.75-24.15 38.4-22.7 39.05-21.25 39.05-18.8L39.05-18.8 39.05-0.8Q39.05-0.4 38.85-0.25 38.65-0.1 37.8-0.05 36.95 0 34.85 0L34.85 0 34.85-17.6Q34.85-19.95 34.3-20.95 33.75-21.95 31.9-21.95L31.9-21.95Q31.05-21.95 30-21.75 28.95-21.55 28.15-21.05L28.15-21.05 28.15-0.8Q28.15-0.4 27.97-0.25 27.8-0.1 26.95-0.05 26.1 0 24.1 0ZM50.6 0.5L50.6 0.5Q48.95 0.5 47.5 0.13 46.05-0.25 44.9-1.48 43.75-2.7 43.12-5.13 42.5-7.55 42.5-11.6L42.5-11.6Q42.5-16.55 43.52-19.63 44.55-22.7 46.27-24.1 48-25.5 50.15-25.5L50.15-25.5Q51.3-25.5 52.2-25.25 53.1-25 53.7-24.5L53.7-24.5 53.7-34.9Q53.7-35.85 54.02-36.23 54.35-36.6 55.25-36.68 56.15-36.75 57.75-36.75L57.75-36.75 57.75-1Q56.55-0.4 54.72 0.05 52.9 0.5 50.6 0.5ZM50.75-3.15L50.75-3.15Q51.6-3.15 52.35-3.33 53.1-3.5 53.7-3.9L53.7-3.9 53.7-21.3Q53.25-21.7 52.72-21.83 52.2-21.95 51.4-21.95L51.4-21.95Q50.6-21.95 49.8-21.55 49-21.15 48.35-20.08 47.7-19 47.35-17.07 47-15.15 47-12.05L47-12.05Q47-9.2 47.25-7.45 47.5-5.7 48-4.78 48.5-3.85 49.17-3.5 49.85-3.15 50.75-3.15ZM62.24 0L62.24 0 62.24-23.25Q63.69-24.3 65.44-24.9 67.19-25.5 69.04-25.5L69.04-25.5Q70.99-25.5 71.77-24.98 72.54-24.45 72.54-23.4L72.54-23.4Q72.54-23 72.44-22.33 72.34-21.65 72.09-21L72.09-21Q71.54-21.3 70.94-21.45 70.34-21.6 69.69-21.6L69.69-21.6Q68.84-21.6 67.97-21.33 67.09-21.05 66.39-20.5L66.39-20.5 66.34-0.8Q66.34-0.4 66.17-0.25 65.99-0.1 65.14-0.05 64.29 0 62.24 0ZM76.99 9.65L76.99 9.65Q74.79 9.65 73.87 9.1 72.94 8.55 72.94 7.7L72.94 7.7Q72.94 7.1 73.09 6.45 73.24 5.8 73.54 5.4L73.54 5.4Q74.04 5.75 74.94 5.98 75.84 6.2 76.69 6.2L76.69 6.2Q77.89 6.2 78.84 5.05 79.79 3.9 80.34 0.8L80.34 0.8 74.34-23.9Q74.19-24.45 74.32-24.68 74.44-24.9 75.32-24.95 76.19-25 78.29-25L78.29-25 80.99-13.05Q81.29-11.55 81.54-10 81.79-8.45 81.94-7.13 82.09-5.8 82.22-5 82.34-4.2 82.34-4.2L82.34-4.2Q82.34-4.2 82.42-5 82.49-5.8 82.67-7.13 82.84-8.45 83.07-10.03 83.29-11.6 83.54-13.1L83.54-13.1 85.79-23.8Q85.89-24.45 86.09-24.68 86.29-24.9 87.19-24.95 88.09-25 90.14-25L90.14-25 83.99 1.35Q83.24 4.5 82.32 6.33 81.39 8.15 80.12 8.9 78.84 9.65 76.99 9.65Z" fill="white"></path></g></svg></g></svg></g></svg></g></svg></g><g></g></svg></g><defs><mask></mask></defs></svg></g></mask><linearGradient x1="0" x2="1" y1="0.548" y2="0.55" id="f1ca0dab-b57d-4bee-8543-d832e2bb8fee"><stop stop-color="#ff6cab" offset="0"></stop><stop stop-color="#7366ff" offset="1"></stop></linearGradient><rect width="395.5200000000001" height="98.58520050495554" fill="url(#f1ca0dab-b57d-4bee-8543-d832e2bb8fee)" mask="url(#23597c4d-734a-43eb-be13-221615fa3be0)" data-fill-palette-color="primary"></rect></svg><rect width="395.5199999999999" height="98.58520050495554" fill="none" stroke="none" visibility="hidden"></rect></g></svg></g></svg>

